<svg id="visual" viewBox="0 0 900 600" width="900" height="600" xmlns="http://www.w3.org/2000/svg" xmlns:xlink="http://www.w3.org/1999/xlink" version="1.1"><rect x="0" y="0" width="900" height="600" fill="#334155"></rect><path d="M0 534L11.5 532.2C23 530.3 46 526.7 69 524.8C92 523 115 523 138.2 524.2C161.3 525.3 184.7 527.7 207.8 527.7C231 527.7 254 525.3 277 526.7C300 528 323 533 346 534.8C369 536.7 392 535.3 415.2 533.8C438.3 532.3 461.7 530.7 484.8 529.3C508 528 531 527 554 527.5C577 528 600 530 623 531C646 532 669 532 692.2 530.2C715.3 528.3 738.7 524.7 761.8 525.8C785 527 808 533 831 535C854 537 877 535 888.5 534L900 533L900 601L888.5 601C877 601 854 601 831 601C808 601 785 601 761.8 601C738.7 601 715.3 601 692.2 601C669 601 646 601 623 601C600 601 577 601 554 601C531 601 508 601 484.8 601C461.7 601 438.3 601 415.2 601C392 601 369 601 346 601C323 601 300 601 277 601C254 601 231 601 207.8 601C184.7 601 161.3 601 138.2 601C115 601 92 601 69 601C46 601 23 601 11.5 601L0 601Z" fill="#fb923c"></path><path d="M0 536L11.5 536.5C23 537 46 538 69 537.8C92 537.7 115 536.3 138.2 535.8C161.3 535.3 184.7 535.7 207.8 537.3C231 539 254 542 277 541.3C300 540.7 323 536.3 346 535.3C369 534.3 392 536.7 415.2 539C438.3 541.3 461.7 543.7 484.8 543.2C508 542.7 531 539.3 554 539C577 538.7 600 541.3 623 542.3C646 543.3 669 542.7 692.2 542.2C715.3 541.7 738.7 541.3 761.8 541.2C785 541 808 541 831 540C854 539 877 537 888.5 536L900 535L900 601L888.5 601C877 601 854 601 831 601C808 601 785 601 761.8 601C738.7 601 715.3 601 692.2 601C669 601 646 601 623 601C600 601 577 601 554 601C531 601 508 601 484.8 601C461.7 601 438.3 601 415.2 601C392 601 369 601 346 601C323 601 300 601 277 601C254 601 231 601 207.8 601C184.7 601 161.3 601 138.2 601C115 601 92 601 69 601C46 601 23 601 11.5 601L0 601Z" fill="#ff694d"></path><path d="M0 549L11.5 548.8C23 548.7 46 548.3 69 548.7C92 549 115 550 138.2 550.7C161.3 551.3 184.7 551.7 207.8 551.7C231 551.7 254 551.3 277 552.3C300 553.3 323 555.7 346 556C369 556.3 392 554.7 415.2 554C438.3 553.3 461.7 553.7 484.8 552.7C508 551.7 531 549.3 554 549.7C577 550 600 553 623 553.3C646 553.7 669 551.3 692.2 551.5C715.3 551.7 738.7 554.3 761.8 555.8C785 557.3 808 557.7 831 557.2C854 556.7 877 555.3 888.5 554.7L900 554L900 601L888.5 601C877 601 854 601 831 601C808 601 785 601 761.8 601C738.7 601 715.3 601 692.2 601C669 601 646 601 623 601C600 601 577 601 554 601C531 601 508 601 484.8 601C461.7 601 438.3 601 415.2 601C392 601 369 601 346 601C323 601 300 601 277 601C254 601 231 601 207.8 601C184.7 601 161.3 601 138.2 601C115 601 92 601 69 601C46 601 23 601 11.5 601L0 601Z" fill="#ff386a"></path><path d="M0 558L11.5 558.8C23 559.7 46 561.3 69 562.8C92 564.3 115 565.7 138.2 566.2C161.3 566.7 184.7 566.3 207.8 564.7C231 563 254 560 277 559.5C300 559 323 561 346 562.5C369 564 392 565 415.2 564.5C438.3 564 461.7 562 484.8 561.8C508 561.7 531 563.3 554 563.2C577 563 600 561 623 560.2C646 559.3 669 559.7 692.2 561C715.3 562.3 738.7 564.7 761.8 565.8C785 567 808 567 831 565C854 563 877 559 888.5 557L900 555L900 601L888.5 601C877 601 854 601 831 601C808 601 785 601 761.8 601C738.7 601 715.3 601 692.2 601C669 601 646 601 623 601C600 601 577 601 554 601C531 601 508 601 484.8 601C461.7 601 438.3 601 415.2 601C392 601 369 601 346 601C323 601 300 601 277 601C254 601 231 601 207.8 601C184.7 601 161.3 601 138.2 601C115 601 92 601 69 601C46 601 23 601 11.5 601L0 601Z" fill="#f80090"></path><path d="M0 572L11.5 572.5C23 573 46 574 69 573.3C92 572.7 115 570.3 138.2 569.5C161.3 568.7 184.7 569.3 207.8 569.5C231 569.7 254 569.3 277 569.8C300 570.3 323 571.7 346 572.7C369 573.7 392 574.3 415.2 574.3C438.3 574.3 461.7 573.7 484.8 572.8C508 572 531 571 554 570.3C577 569.7 600 569.3 623 569.3C646 569.3 669 569.7 692.2 569.8C715.3 570 738.7 570 761.8 570.3C785 570.7 808 571.3 831 571.2C854 571 877 570 888.5 569.5L900 569L900 601L888.5 601C877 601 854 601 831 601C808 601 785 601 761.8 601C738.7 601 715.3 601 692.2 601C669 601 646 601 623 601C600 601 577 601 554 601C531 601 508 601 484.8 601C461.7 601 438.3 601 415.2 601C392 601 369 601 346 601C323 601 300 601 277 601C254 601 231 601 207.8 601C184.7 601 161.3 601 138.2 601C115 601 92 601 69 601C46 601 23 601 11.5 601L0 601Z" fill="#d800bd"></path><path d="M0 579L11.5 579.5C23 580 46 581 69 581.5C92 582 115 582 138.2 582.5C161.3 583 184.7 584 207.8 584.5C231 585 254 585 277 584C300 583 323 581 346 580C369 579 392 579 415.2 579C438.3 579 461.7 579 484.8 579.5C508 580 531 581 554 581.3C577 581.7 600 581.3 623 581.8C646 582.3 669 583.7 692.2 583.7C715.3 583.7 738.7 582.3 761.8 581.7C785 581 808 581 831 581.7C854 582.3 877 583.7 888.5 584.3L900 585L900 601L888.5 601C877 601 854 601 831 601C808 601 785 601 761.8 601C738.7 601 715.3 601 692.2 601C669 601 646 601 623 601C600 601 577 601 554 601C531 601 508 601 484.8 601C461.7 601 438.3 601 415.2 601C392 601 369 601 346 601C323 601 300 601 277 601C254 601 231 601 207.8 601C184.7 601 161.3 601 138.2 601C115 601 92 601 69 601C46 601 23 601 11.5 601L0 601Z" fill="#9333ea"></path></svg>